<mxfile host="app.diagrams.net" modified="2023-03-06T08:16:57.738Z" agent="5.0 (Windows NT 10.0; Win64; x64) AppleWebKit/537.36 (KHTML, like Gecko) Chrome/110.0.0.0 Safari/537.36" etag="iV5KJOUw2zWgLGVYV2z5" version="21.0.2" type="github">
  <diagram name="第 1 页" id="HnaVYptgvOEwf5I59ucu">
    <mxGraphModel dx="803" dy="502" grid="1" gridSize="10" guides="1" tooltips="1" connect="1" arrows="1" fold="1" page="1" pageScale="1" pageWidth="827" pageHeight="1169" math="0" shadow="0">
      <root>
        <mxCell id="0" />
        <mxCell id="1" parent="0" />
        <mxCell id="ntk0S3NxcaOMZA44O0UO-1" value="" style="rounded=0;whiteSpace=wrap;html=1;dashed=1;" vertex="1" parent="1">
          <mxGeometry x="180" y="90" width="500" height="300" as="geometry" />
        </mxCell>
        <mxCell id="ntk0S3NxcaOMZA44O0UO-2" value="镜像" style="rounded=0;whiteSpace=wrap;html=1;" vertex="1" parent="1">
          <mxGeometry x="382.5" y="74" width="95" height="30" as="geometry" />
        </mxCell>
        <mxCell id="ntk0S3NxcaOMZA44O0UO-3" value="" style="rounded=0;whiteSpace=wrap;html=1;" vertex="1" parent="1">
          <mxGeometry x="220" y="130" width="430" height="60" as="geometry" />
        </mxCell>
        <mxCell id="ntk0S3NxcaOMZA44O0UO-4" value="" style="rounded=0;whiteSpace=wrap;html=1;" vertex="1" parent="1">
          <mxGeometry x="220" y="210" width="430" height="60" as="geometry" />
        </mxCell>
        <mxCell id="ntk0S3NxcaOMZA44O0UO-5" value="" style="rounded=0;whiteSpace=wrap;html=1;" vertex="1" parent="1">
          <mxGeometry x="220" y="290" width="430" height="60" as="geometry" />
        </mxCell>
        <mxCell id="ntk0S3NxcaOMZA44O0UO-6" value="文件7" style="shape=document;whiteSpace=wrap;html=1;boundedLbl=1;" vertex="1" parent="1">
          <mxGeometry x="510" y="140" width="80" height="40" as="geometry" />
        </mxCell>
        <mxCell id="ntk0S3NxcaOMZA44O0UO-7" value="文件5" style="shape=document;whiteSpace=wrap;html=1;boundedLbl=1;" vertex="1" parent="1">
          <mxGeometry x="460" y="220" width="80" height="40" as="geometry" />
        </mxCell>
        <mxCell id="ntk0S3NxcaOMZA44O0UO-8" value="文件4" style="shape=document;whiteSpace=wrap;html=1;boundedLbl=1;" vertex="1" parent="1">
          <mxGeometry x="360" y="220" width="80" height="40" as="geometry" />
        </mxCell>
        <mxCell id="ntk0S3NxcaOMZA44O0UO-9" value="文件6" style="shape=document;whiteSpace=wrap;html=1;boundedLbl=1;" vertex="1" parent="1">
          <mxGeometry x="560" y="220" width="80" height="40" as="geometry" />
        </mxCell>
        <mxCell id="ntk0S3NxcaOMZA44O0UO-10" value="文件1" style="shape=document;whiteSpace=wrap;html=1;boundedLbl=1;" vertex="1" parent="1">
          <mxGeometry x="240" y="300" width="80" height="40" as="geometry" />
        </mxCell>
        <mxCell id="ntk0S3NxcaOMZA44O0UO-11" value="文件2" style="shape=document;whiteSpace=wrap;html=1;boundedLbl=1;" vertex="1" parent="1">
          <mxGeometry x="340" y="300" width="80" height="40" as="geometry" />
        </mxCell>
        <mxCell id="ntk0S3NxcaOMZA44O0UO-12" value="文件3" style="shape=document;whiteSpace=wrap;html=1;boundedLbl=1;" vertex="1" parent="1">
          <mxGeometry x="440" y="300" width="80" height="40" as="geometry" />
        </mxCell>
        <mxCell id="ntk0S3NxcaOMZA44O0UO-16" style="edgeStyle=orthogonalEdgeStyle;rounded=0;orthogonalLoop=1;jettySize=auto;html=1;exitX=1;exitY=0.5;exitDx=0;exitDy=0;" edge="1" parent="1" source="ntk0S3NxcaOMZA44O0UO-13">
          <mxGeometry relative="1" as="geometry">
            <mxPoint x="170" y="160" as="targetPoint" />
          </mxGeometry>
        </mxCell>
        <mxCell id="ntk0S3NxcaOMZA44O0UO-13" value="第三层" style="text;html=1;strokeColor=none;fillColor=none;align=center;verticalAlign=middle;whiteSpace=wrap;rounded=0;" vertex="1" parent="1">
          <mxGeometry x="40" y="145" width="60" height="30" as="geometry" />
        </mxCell>
        <mxCell id="ntk0S3NxcaOMZA44O0UO-17" style="edgeStyle=orthogonalEdgeStyle;rounded=0;orthogonalLoop=1;jettySize=auto;html=1;exitX=1;exitY=0.5;exitDx=0;exitDy=0;" edge="1" parent="1" source="ntk0S3NxcaOMZA44O0UO-14">
          <mxGeometry relative="1" as="geometry">
            <mxPoint x="170" y="240" as="targetPoint" />
          </mxGeometry>
        </mxCell>
        <mxCell id="ntk0S3NxcaOMZA44O0UO-14" value="第二层" style="text;html=1;strokeColor=none;fillColor=none;align=center;verticalAlign=middle;whiteSpace=wrap;rounded=0;" vertex="1" parent="1">
          <mxGeometry x="40" y="225" width="60" height="30" as="geometry" />
        </mxCell>
        <mxCell id="ntk0S3NxcaOMZA44O0UO-18" style="edgeStyle=orthogonalEdgeStyle;rounded=0;orthogonalLoop=1;jettySize=auto;html=1;exitX=1;exitY=0.5;exitDx=0;exitDy=0;" edge="1" parent="1" source="ntk0S3NxcaOMZA44O0UO-15">
          <mxGeometry relative="1" as="geometry">
            <mxPoint x="170" y="320" as="targetPoint" />
          </mxGeometry>
        </mxCell>
        <mxCell id="ntk0S3NxcaOMZA44O0UO-15" value="第一层" style="text;html=1;strokeColor=none;fillColor=none;align=center;verticalAlign=middle;whiteSpace=wrap;rounded=0;" vertex="1" parent="1">
          <mxGeometry x="40" y="305" width="60" height="30" as="geometry" />
        </mxCell>
      </root>
    </mxGraphModel>
  </diagram>
</mxfile>
